<svg xmlns="http://www.w3.org/2000/svg" viewBox="0 0 1120 940" width="1120" height="940" font-family="Segoe UI, Helvetica, Arial, sans-serif">
  <defs>
    <marker id="inc" viewBox="0 0 10 10" refX="9" refY="5" markerWidth="8" markerHeight="8" orient="auto-start-reverse">
      <path d="M 0 0 L 10 5 L 0 10" fill="none" stroke="#6b7280" stroke-width="1.4"/>
    </marker>
  </defs>
  <rect width="1120" height="940" fill="#ffffff"/>

  <!-- ===== system boundary ===== -->
  <rect x="210" y="120" width="680" height="670" rx="6" fill="#ffffff" stroke="#111827" stroke-width="1.6"/>
  <text x="240" y="150" font-size="15" font-weight="700" fill="#111827">RidePool System</text>

  <!-- ===== associations: Rider ===== -->
  <g stroke="#374151" stroke-width="1.2" fill="none">
    <path d="M158,492 L240,192"/>
    <path d="M158,492 L238,253"/>
    <path d="M158,492 L236,316"/>
    <path d="M158,492 L235,379"/>
    <path d="M158,492 L235,619"/>
    <path d="M158,492 L237,682"/>
    <path d="M158,492 L240,744"/>
    <path d="M158,492 L457,436"/>
    <path d="M158,492 L455,500"/>
    <path d="M158,492 L457,564"/>
  </g>
  <!-- ===== associations: Driver ===== -->
  <g stroke="#374151" stroke-width="1.2" fill="none">
    <path d="M947,492 L862,191"/>
    <path d="M947,492 L864,253"/>
    <path d="M947,492 L866,316"/>
    <path d="M947,492 L866,619"/>
    <path d="M947,492 L864,682"/>
    <path d="M947,492 L644,436"/>
    <path d="M947,492 L645,500"/>
    <path d="M947,492 L644,564"/>
  </g>
  <!-- ===== associations: external systems ===== -->
  <g stroke="#374151" stroke-width="1.2" fill="none">
    <path d="M550,108 L550,224"/>
    <path d="M200,838 L284,710"/>
    <path d="M203,845 L285,772"/>
  </g>

  <!-- ===== include relationships ===== -->
  <g stroke="#6b7280" stroke-width="1.3" fill="none" stroke-dasharray="6 4" marker-end="url(#inc)">
    <path d="M420,193 L462,240"/>
    <path d="M425,250 L455,250"/>
    <path d="M675,250 L645,250"/>
    <path d="M420,628 L462,675"/>
    <path d="M425,685 L455,685"/>
  </g>

  <!-- ===== rider use cases ===== -->
  <g fill="#eff6ff" stroke="#2563eb" stroke-width="1.4">
    <ellipse cx="330" cy="185" rx="95" ry="26"/>
    <ellipse cx="330" cy="250" rx="95" ry="26"/>
    <ellipse cx="330" cy="315" rx="95" ry="26"/>
    <ellipse cx="330" cy="380" rx="95" ry="26"/>
    <ellipse cx="330" cy="620" rx="95" ry="26"/>
    <ellipse cx="330" cy="685" rx="95" ry="26"/>
    <ellipse cx="330" cy="750" rx="95" ry="26"/>
  </g>
  <g font-size="13" fill="#111827" text-anchor="middle">
    <text x="330" y="189">Search &amp; Join Pool</text>
    <text x="330" y="254">Book Advance Ride</text>
    <text x="330" y="319">Set Female-Only Pool</text>
    <text x="330" y="384">Invite Priyo Sathi</text>
    <text x="330" y="624">Estimate Fare &amp; Route</text>
    <text x="330" y="689">Pay Fare</text>
    <text x="330" y="754">Top Up &amp; Use Wallet</text>
  </g>

  <!-- ===== driver use cases ===== -->
  <g fill="#fffbeb" stroke="#b45309" stroke-width="1.4">
    <ellipse cx="770" cy="185" rx="95" ry="26"/>
    <ellipse cx="770" cy="250" rx="95" ry="26"/>
    <ellipse cx="770" cy="315" rx="95" ry="26"/>
    <ellipse cx="770" cy="620" rx="95" ry="26"/>
    <ellipse cx="770" cy="685" rx="95" ry="26"/>
  </g>
  <g font-size="13" fill="#111827" text-anchor="middle">
    <text x="770" y="189">Go Online / Offline</text>
    <text x="770" y="254">Accept Pool Offer</text>
    <text x="770" y="319">Pick Up &amp; Drop Off</text>
    <text x="770" y="624">Complete Ride</text>
    <text x="770" y="689">View Earnings</text>
  </g>

  <!-- ===== shared use cases ===== -->
  <g fill="#f9fafb" stroke="#374151" stroke-width="1.4">
    <ellipse cx="550" cy="430" rx="95" ry="26"/>
    <ellipse cx="550" cy="500" rx="95" ry="26"/>
    <ellipse cx="550" cy="570" rx="95" ry="26"/>
  </g>
  <g font-size="13" fill="#111827" text-anchor="middle">
    <text x="550" y="434">Register / Log In</text>
    <text x="550" y="504">Track Trip &amp; Chat</text>
    <text x="550" y="574">Rate Trip &amp; Driver</text>
  </g>

  <!-- ===== system-internal use cases ===== -->
  <g fill="#f3f4f6" stroke="#6b7280" stroke-width="1.4">
    <ellipse cx="550" cy="250" rx="95" ry="26"/>
    <ellipse cx="550" cy="685" rx="95" ry="26"/>
  </g>
  <g font-size="13" fill="#111827" text-anchor="middle">
    <text x="550" y="246">Match Riders</text>
    <text x="550" y="261">into a Pool</text>
    <text x="550" y="681">Calculate &amp;</text>
    <text x="550" y="696">Split Fare</text>
  </g>

  <!-- ===== actor: Rider ===== -->
  <g stroke="#111827" stroke-width="1.8" fill="none">
    <circle cx="130" cy="462" r="14" fill="#ffffff"/>
    <path d="M130,476 L130,520 M104,492 L156,492 M130,520 L112,550 M130,520 L148,550"/>
  </g>
  <text x="130" y="574" font-size="15" font-weight="700" fill="#111827" text-anchor="middle">Rider</text>

  <!-- ===== actor: Driver ===== -->
  <g stroke="#111827" stroke-width="1.8" fill="none">
    <circle cx="975" cy="462" r="14" fill="#ffffff"/>
    <path d="M975,476 L975,520 M949,492 L1001,492 M975,520 L957,550 M975,520 L993,550"/>
  </g>
  <text x="975" y="574" font-size="15" font-weight="700" fill="#111827" text-anchor="middle">Driver</text>

  <!-- ===== actor: Google Maps ===== -->
  <g stroke="#6b7280" stroke-width="1.6" fill="none">
    <circle cx="550" cy="30" r="11" fill="#ffffff"/>
    <path d="M550,41 L550,68 M531,50 L569,50 M550,68 L538,86 M550,68 L562,86"/>
  </g>
  <text x="550" y="102" font-size="12.5" fill="#374151" text-anchor="middle">&#171;system&#187; Google Maps Platform</text>

  <!-- ===== actor: Payment Gateway ===== -->
  <g stroke="#6b7280" stroke-width="1.6" fill="none">
    <circle cx="185" cy="828" r="11" fill="#ffffff"/>
    <path d="M185,839 L185,866 M166,848 L204,848 M185,866 L173,884 M185,866 L197,884"/>
  </g>
  <text x="185" y="906" font-size="12.5" fill="#374151" text-anchor="middle">&#171;system&#187; Payment Gateway</text>
  <text x="185" y="922" font-size="11.5" fill="#6b7280" text-anchor="middle">(bKash / SSLCommerz)</text>

  <!-- ===== legend ===== -->
  <rect x="420" y="848" width="400" height="66" rx="4" fill="#ffffff" stroke="#d1d5db"/>
  <path d="M438,872 L478,872" stroke="#374151" stroke-width="1.2"/>
  <text x="488" y="876" font-size="12" fill="#374151">association</text>
  <path d="M438,898 L470,898" stroke="#6b7280" stroke-width="1.3" stroke-dasharray="6 4" marker-end="url(#inc)" fill="none"/>
  <text x="488" y="902" font-size="12" fill="#374151">&#171;include&#187;</text>
  <text x="592" y="876" font-size="12" fill="#6b7280">blue = rider  &#183;  amber = driver</text>
  <text x="592" y="902" font-size="12" fill="#6b7280">grey = shared / system-internal</text>
</svg>
